<svg id="Calque_1" data-name="Calque 1" xmlns="http://www.w3.org/2000/svg" xmlns:xlink="http://www.w3.org/1999/xlink" height="40" width="200" viewBox="0 0 1747 306.48"><defs><style>.cls-1{fill:#232428;}.cls-2{fill:#1575b5;}.cls-3{fill:#8fc2e5;}.cls-4{fill:url(#Dégradé_sans_nom_76);}</style><linearGradient id="Dégradé_sans_nom_76" x1="278.03" y1="130.18" x2="278.03" y2="321.5" gradientTransform="translate(-142.58 -62.97) scale(1.06 1)" gradientUnits="userSpaceOnUse"><stop offset="0.1" stop-color="#619cca"/><stop offset="1" stop-color="#1575b5"/></linearGradient></defs><title>logo-isokronic</title><path class="cls-1" d="M464.77,315.14h-16V121.3h16Z" transform="translate(-77 -62.97)"/><path class="cls-1" d="M630,267.53q0-15.81-11.85-25.85t-41.27-17.74q-31.82-8-48.19-20.77T512.3,168.69q0-22.23,18.31-36.21t47.06-14q30,0,48.33,16.64t17.84,40.61l-.4.8H628.79q0-19.43-13.78-32t-37.34-12.51q-23.3,0-36.41,10.38t-13.11,25.82q0,14.66,12.11,24.43T582.06,210q31.28,8,47.59,21.56T646,267.35q0,23.16-19,36.87T578.6,317.93q-29,0-50.65-14.58t-21-42.53l.27-.8h14.65q0,22.58,16.91,33.46t39.81,10.88q23,0,37.21-10.1T630,267.53Z" transform="translate(-77 -62.97)"/><path class="cls-1" d="M824.48,234.06q0,37.54-20.57,60.71t-55.18,23.16q-34.08,0-54.38-23.16T674,234.06V202.51q0-37.41,20.24-60.71t54.32-23.3q34.61,0,55.25,23.3t20.63,60.71Zm-15.84-31.71q0-31.47-15.91-50.66t-44.13-19.2q-27.69,0-43.13,19.2T690,202.35v31.87q0,31.73,15.51,50.93t43.2,19.2q28.35,0,44.13-19.13t15.77-51Z" transform="translate(-77 -62.97)"/><path class="cls-2" d="M922.07,237.39H901.3v77.75H856.17V121.3H901.3v78.48h21.25l43.54-78.49h53.21l-64.22,96.83,65.24,97H965.47Z" transform="translate(-77 -62.97)"/><path class="cls-2" d="M1077.69,236.88v78.25h-45.13V121.3h74.55q33.68,0,53.38,15.57t19.7,42.61c0,10-3,16.52-8.3,23.7a36,36,0,0,1-23,14.39c11.89,3.37,20.43,14.29,25.62,22.15s7.79,17.63,7.79,29.36v12.25a77.28,77.28,0,0,0,2.26,17.31q2.26,9.72,7.86,13.84v2.66h-46.33q-5.33-4.13-7-14.64a125,125,0,0,1-1.66-19.43V269.34q0-13.84-7.32-21.17c-4.88-4.88-12-11.29-21.43-11.29Zm0-36.56h20.6c9.05,0,22.3,0,28.11-2.45,6.67-2.85,8.93-11,8.93-18.76,0-7.9-2.25-13.78-7.57-17.61-5.6-4-11.69-5.6-20.65-5.6h-29.42Z" transform="translate(-77 -62.97)"/><path class="cls-2" d="M1372.84,235.66q0,35.82-22.7,59t-59.31,23.23q-36.88,0-59.77-23.23t-22.9-59V200.78q0-35.67,22.83-59t59.57-23.3q36.47,0,59.37,23.3t22.9,59ZM1328,200.51q0-20.77-9.79-34.09t-27.62-13.31q-18.24,0-27.89,13.25T1253,200.51v35.14q0,21,9.78,34.35t28,13.31q17.7,0,27.42-13.31t9.72-34.35Z" transform="translate(-77 -62.97)"/><path class="cls-2" d="M1560.68,315.14h-44.86l-71-123.54-.8.27V315.14h-45.13V121.3h45.13l71,123.54.8-.27V121.3h44.86Z" transform="translate(-77 -62.97)"/><path class="cls-2" d="M1639.09,315.14h-44.86V121.3h44.86Z" transform="translate(-77 -62.97)"/><path class="cls-2" d="M1823.47,247.1l.27.8Q1822.4,282,1803.57,300t-54.65,18q-35.95,0-58.44-22.1T1668,238.45V198q0-35.14,21.64-57.31t56.25-22.17q36.74,0,56.18,18.5t22,52.59l-.27.8h-43.8q-.94-18.9-8.46-28.1t-25.62-9.18q-15.31,0-24.1,12.32T1713,197.72v40.73q0,20.1,9.58,32.49t26.36,12.38q16.24,0,23-8.65t7.73-27.56Z" transform="translate(-77 -62.97)"/><path class="cls-3" d="M343.66,369.45H116.82A39.86,39.86,0,0,1,77,329.63V102.79A39.86,39.86,0,0,1,116.82,63h227a39.86,39.86,0,0,1,39.82,39.82V334.63h-.49A39.88,39.88,0,0,1,343.66,369.45ZM116.82,73A29.85,29.85,0,0,0,87,102.79V329.63a29.85,29.85,0,0,0,29.82,29.82H343.66a29.85,29.85,0,0,0,29.82-29.82v-5h.18V102.79A29.85,29.85,0,0,0,343.84,73Z" transform="translate(-77 -62.97)"/><rect class="cls-4" x="70.08" y="63.24" width="166.49" height="31.38"/><polygon class="cls-4" points="70.08 157.25 139.61 157.25 139.61 174.66 70.08 216.66 70.08 253.41 153.03 198.09 236.58 252.89 236.58 216.04 168.54 174.53 168.54 157.25 236.58 157.25 236.58 125.88 70.08 125.88 70.08 157.25"/></svg>